ffmpeg started on 2023-05-27 at 23:54:19
Report written to "ffmpeg.log"
Log level: 32
Command line:
ffmpeg -framerate 30 -i "/Users/user/dev/walk-analysis-node/output/tmp_frames/frame-%d.png" -c:v libx264 -pix_fmt yuv420p /Users/user/dev/walk-analysis-node/output/stickman_2023-5-27_23-53-53.mp4
ffmpeg version 6.0 Copyright (c) 2000-2023 the FFmpeg developers
  built with Apple clang version 14.0.3 (clang-1403.0.22.14.1)
  configuration: --prefix=/opt/homebrew/Cellar/ffmpeg/6.0 --enable-shared --enable-pthreads --enable-version3 --cc=clang --host-cflags= --host-ldflags= --enable-ffplay --enable-gnutls --enable-gpl --enable-libaom --enable-libaribb24 --enable-libbluray --enable-libdav1d --enable-libmp3lame --enable-libopus --enable-librav1e --enable-librist --enable-librubberband --enable-libsnappy --enable-libsrt --enable-libsvtav1 --enable-libtesseract --enable-libtheora --enable-libvidstab --enable-libvmaf --enable-libvorbis --enable-libvpx --enable-libwebp --enable-libx264 --enable-libx265 --enable-libxml2 --enable-libxvid --enable-lzma --enable-libfontconfig --enable-libfreetype --enable-frei0r --enable-libass --enable-libopencore-amrnb --enable-libopencore-amrwb --enable-libopenjpeg --enable-libspeex --enable-libsoxr --enable-libzmq --enable-libzimg --disable-libjack --disable-indev=jack --enable-videotoolbox --enable-neon
  libavutil      58.  2.100 / 58.  2.100
  libavcodec     60.  3.100 / 60.  3.100
  libavformat    60.  3.100 / 60.  3.100
  libavdevice    60.  1.100 / 60.  1.100
  libavfilter     9.  3.100 /  9.  3.100
  libswscale      7.  1.100 /  7.  1.100
  libswresample   4. 10.100 /  4. 10.100
  libpostproc    57.  1.100 / 57.  1.100
Input #0, image2, from '/Users/user/dev/walk-analysis-node/output/tmp_frames/frame-%d.png':
  Duration: 00:00:05.73, start: 0.000000, bitrate: N/A
  Stream #0:0: Video: png, rgba(pc), 720x1280, 30 fps, 30 tbr, 30 tbn
Stream mapping:
  Stream #0:0 -> #0:0 (png (native) -> h264 (libx264))
Press [q] to stop, [?] for help
[libx264 @ 0x127606bb0] using cpu capabilities: ARMv8 NEON
[libx264 @ 0x127606bb0] profile High, level 3.1, 4:2:0, 8-bit
[libx264 @ 0x127606bb0] 264 - core 164 r3095 baee400 - H.264/MPEG-4 AVC codec - Copyleft 2003-2022 - http://www.videolan.org/x264.html - options: cabac=1 ref=3 deblock=1:0:0 analyse=0x3:0x113 me=hex subme=7 psy=1 psy_rd=1.00:0.00 mixed_ref=1 me_range=16 chroma_me=1 trellis=1 8x8dct=1 cqm=0 deadzone=21,11 fast_pskip=1 chroma_qp_offset=-2 threads=12 lookahead_threads=2 sliced_threads=0 nr=0 decimate=1 interlaced=0 bluray_compat=0 constrained_intra=0 bframes=3 b_pyramid=2 b_adapt=1 b_bias=0 direct=1 weightb=1 open_gop=0 weightp=2 keyint=250 keyint_min=25 scenecut=40 intra_refresh=0 rc_lookahead=40 rc=crf mbtree=1 crf=23.0 qcomp=0.60 qpmin=0 qpmax=69 qpstep=4 ip_ratio=1.40 aq=1:1.00
Output #0, mp4, to '/Users/user/dev/walk-analysis-node/output/stickman_2023-5-27_23-53-53.mp4':
  Metadata:
    encoder         : Lavf60.3.100
  Stream #0:0: Video: h264 (avc1 / 0x31637661), yuv420p(tv, progressive), 720x1280, q=2-31, 30 fps, 15360 tbn
    Metadata:
      encoder         : Lavc60.3.100 libx264
    Side data:
      cpb: bitrate max/min/avg: 0/0/0 buffer size: 0 vbv_delay: N/A
frame=    0 fps=0.0 q=0.0 size=       0kB time=-577014:32:22.77 bitrate=  -0.0kbits/s speed=N/A    frame=   33 fps=0.0 q=29.0 size=       0kB time=00:00:01.03 bitrate=   0.4kbits/s speed=2.05x    frame=  101 fps=100 q=29.0 size=     256kB time=00:00:03.30 bitrate= 635.6kbits/s speed=3.26x    frame=  172 fps=123 q=-1.0 Lsize=    1079kB time=00:00:05.63 bitrate=1569.5kbits/s speed=4.02x    
video:1076kB audio:0kB subtitle:0kB other streams:0kB global headers:0kB muxing overhead: 0.263722%
[libx264 @ 0x127606bb0] frame I:1     Avg QP:20.69  size: 20423
[libx264 @ 0x127606bb0] frame P:49    Avg QP:22.24  size: 11683
[libx264 @ 0x127606bb0] frame B:122   Avg QP:24.00  size:  4170
[libx264 @ 0x127606bb0] consecutive B-frames:  1.2% 10.5%  7.0% 81.4%
[libx264 @ 0x127606bb0] mb I  I16..4: 31.0% 55.8% 13.2%
[libx264 @ 0x127606bb0] mb P  I16..4: 13.6% 20.6%  1.9%  P16..4: 32.6%  6.6%  3.4%  0.0%  0.0%    skip:21.3%
[libx264 @ 0x127606bb0] mb B  I16..4:  1.8%  2.5%  0.2%  B16..8: 31.0%  3.7%  0.6%  direct: 2.3%  skip:57.9%  L0:47.1% L1:48.5% BI: 4.4%
[libx264 @ 0x127606bb0] 8x8 transform intra:56.7% inter:85.0%
[libx264 @ 0x127606bb0] coded y,uvDC,uvAC intra: 20.6% 33.9% 3.9% inter: 7.4% 12.9% 1.1%
[libx264 @ 0x127606bb0] i16 v,h,dc,p: 45% 29% 10% 16%
[libx264 @ 0x127606bb0] i8 v,h,dc,ddl,ddr,vr,hd,vl,hu: 36% 15% 35%  2%  2%  3%  2%  2%  2%
[libx264 @ 0x127606bb0] i4 v,h,dc,ddl,ddr,vr,hd,vl,hu: 48% 14% 18%  2%  3%  6%  3%  4%  1%
[libx264 @ 0x127606bb0] i8c dc,h,v,p: 51% 21% 26%  2%
[libx264 @ 0x127606bb0] Weighted P-Frames: Y:6.1% UV:0.0%
[libx264 @ 0x127606bb0] ref P L0: 66.9%  6.3% 19.2%  7.1%  0.5%
[libx264 @ 0x127606bb0] ref B L0: 89.5%  8.4%  2.2%
[libx264 @ 0x127606bb0] ref B L1: 96.9%  3.1%
[libx264 @ 0x127606bb0] kb/s:1537.13
